# xmcd
#
# Track frame offsets: 
#        150
#        16599
#        33368
#        48426
#
# Disc length: 895 seconds
#
# Revision: 0
# Processed by: cddbd v1.5.2PL0 Copyright (c) Steve Scherf et al.
# Submitted via: ExactAudioCopyFreeDBPlugin 1.0
#
DISCID=22037d04
DTITLE=Lynda Kay - The Allure of
DYEAR=2013
DGENRE=Country
TTITLE0=Hurt
TTITLE1=Don't let me be misunderstood
TTITLE2=You're my world
TTITLE3=I put a spell on you
EXTD=
EXTT0=
EXTT1=
EXTT2=
EXTT3=
PLAYORDER=
